<?xml version="1.0" encoding="UTF-8" standalone="no"?>
<!DOCTYPE svg PUBLIC "-//W3C//DTD SVG 1.1//EN" "http://www.w3.org/Graphics/SVG/1.1/DTD/svg11.dtd">
<svg width="360.0" height="360.0" viewBox="0 0 360.0 360.0" version="1.1" xmlns="http://www.w3.org/2000/svg">
<rect x="0" y="0" width="360.0" height="360.0" style="fill:white;"/>
<circle cx="180.0" cy="180.0" r="35.0" fill="rgb(231,5,217)" />
<circle cx="143.43222" cy="233.7384" r="33.0" fill="rgb(102,37,0)" />
<circle cx="236.67563" cy="153.89151" r="30.266666" fill="rgb(247,135,140)" />
<circle cx="233.43419" cy="214.12285" r="29.666666" fill="rgb(64,126,138)" />
<circle cx="126.60115" cy="180.3708" r="19.866667" fill="rgb(182,111,68)" />
<circle cx="141.96945" cy="141.38223" r="18.666668" fill="rgb(9,240,237)" />
<circle cx="181.22453" cy="125.0135" r="17.933334" fill="rgb(199,143,166)" />
<circle cx="192.91089" cy="242.88855" r="17.733334" fill="rgb(183,46,130)" />
<circle cx="109.21621" cy="144.91945" r="17.0" fill="rgb(165,48,56)" />
<circle cx="106.27312" cy="206.06874" r="15.866667" fill="rgb(36,107,23)" />
<circle cx="209.9363" cy="118.944016" r="13.666667" fill="rgb(121,245,210)" />
<circle cx="141.09369" cy="110.55615" r="13.533334" fill="rgb(195,6,48)" />
<circle cx="95.22288" cy="181.96304" r="12.133333" fill="rgb(225,124,255)" />
<circle cx="118.95578" cy="119.9922" r="11.6" fill="rgb(116,233,7)" />
<circle cx="171.16296" cy="100.48966" r="10.933333" fill="rgb(221,225,96)" />
<circle cx="216.1883" cy="254.47299" r="10.4" fill="rgb(162,177,59)" />
<circle cx="261.22638" cy="189.66959" r="10.133333" fill="rgb(112,243,250)" />
<circle cx="197.71577" cy="95.231606" r="9.733334" fill="rgb(64,229,84)" />
<circle cx="231.38844" cy="117.64734" r="9.133333" fill="rgb(73,52,231)" />
<circle cx="192.08641" cy="268.579" r="9.133333" fill="rgb(130,255,133)" />
<circle cx="174.23495" cy="269.41412" r="8.533333" fill="rgb(114,252,158)" />
<circle cx="203.82185" cy="136.95154" r="8.0" fill="rgb(77,25,240)" />
<circle cx="182.73517" cy="219.10454" r="7.2" fill="rgb(201,192,234)" />
<circle cx="96.32585" cy="165.04637" r="7.133333" fill="rgb(224,167,117)" />
<circle cx="214.28227" cy="100.25707" r="7.0" fill="rgb(176,178,201)" />
<circle cx="154.70921" cy="91.128815" r="7.0" fill="rgb(122,112,24)" />
<circle cx="197.56624" cy="214.59586" r="6.6" fill="rgb(9,119,207)" />
<circle cx="143.45868" cy="197.23076" r="6.2666664" fill="rgb(121,104,149)" />
<circle cx="157.32861" cy="116.739716" r="6.133333" fill="rgb(184,167,126)" />
<circle cx="159.86256" cy="129.24905" r="5.866667" fill="rgb(163,61,253)" />
<circle cx="217.60759" cy="183.80981" r="5.666667" fill="rgb(255,255,201)" />
<circle cx="192.70819" cy="107.09936" r="5.6" fill="rgb(134,55,89)" />
<circle cx="163.20396" cy="141.50455" r="5.4" fill="rgb(125,213,34)" />
<circle cx="248.94995" cy="185.87839" r="5.333333" fill="rgb(96,236,185)" />
<circle cx="177.61728" cy="256.96307" r="5.2666664" fill="rgb(213,118,163)" />
<circle cx="155.60422" cy="104.02057" r="5.2666664" fill="rgb(159,141,15)" />
<circle cx="242.91766" cy="119.62472" r="5.2666664" fill="rgb(120,77,14)" />
<circle cx="212.77515" cy="242.0793" r="5.133333" fill="rgb(151,111,138)" />
<circle cx="239.58759" cy="245.83861" r="5.0666666" fill="rgb(192,75,218)" />
<circle cx="156.53404" cy="266.67957" r="5.0666666" fill="rgb(52,151,24)" />
<circle cx="230.14084" cy="245.64021" r="5.0" fill="rgb(91,13,142)" />
<circle cx="100.77194" cy="223.94579" r="4.9333334" fill="rgb(166,142,68)" />
<circle cx="172.8536" cy="87.676445" r="4.9333334" fill="rgb(209,9,125)" />
<circle cx="187.15297" cy="100.1197" r="4.866667" fill="rgb(19,252,107)" />
<circle cx="202.90283" cy="151.1954" r="4.8" fill="rgb(197,36,224)" />
<circle cx="266.61035" cy="165.5969" r="4.6666665" fill="rgb(195,88,138)" />
<circle cx="196.6328" cy="147.39763" r="4.5333333" fill="rgb(75,189,249)" />
<circle cx="265.77136" cy="200.55423" r="4.5333333" fill="rgb(62,104,173)" />
<circle cx="92.51042" cy="153.55217" r="4.5333333" fill="rgb(217,135,212)" />
<circle cx="209.49655" cy="91.80192" r="4.5333333" fill="rgb(235,253,31)" />
<circle cx="226.53046" cy="99.246635" r="4.5333333" fill="rgb(213,136,250)" />
<circle cx="209.37729" cy="264.22336" r="4.4666667" fill="rgb(48,31,236)" />
<circle cx="189.77045" cy="144.93573" r="4.4" fill="rgb(240,197,112)" />
<circle cx="195.62605" cy="222.41315" r="4.4" fill="rgb(253,107,43)" />
<circle cx="130.30255" cy="159.39375" r="4.4" fill="rgb(32,33,10)" />
<circle cx="200.72162" cy="260.3716" r="4.4" fill="rgb(145,20,207)" />
<circle cx="241.77823" cy="109.95032" r="4.3333335" fill="rgb(237,60,182)" />
<circle cx="254.62277" cy="123.49913" r="4.3333335" fill="rgb(128,204,220)" />
<circle cx="131.32817" cy="200.97777" r="4.2" fill="rgb(237,4,183)" />
<circle cx="108.34318" cy="169.65276" r="4.133333" fill="rgb(17,55,62)" />
<circle cx="261.32898" cy="173.35619" r="4.133333" fill="rgb(251,122,224)" />
<circle cx="141.43198" cy="165.51018" r="4.0666666" fill="rgb(103,115,248)" />
<circle cx="264.5404" cy="139.36374" r="4.0666666" fill="rgb(67,73,247)" />
<circle cx="271.12222" cy="156.91997" r="4.0666666" fill="rgb(226,6,164)" />
<circle cx="274.09088" cy="175.47333" r="4.0666666" fill="rgb(203,212,83)" />
<circle cx="175.39561" cy="144.2956" r="4.0" fill="rgb(223,7,91)" />
<circle cx="255.39987" cy="180.13347" r="4.0" fill="rgb(131,4,76)" />
<circle cx="182.59512" cy="143.89307" r="3.9333334" fill="rgb(131,189,179)" />
<circle cx="177.85722" cy="225.54973" r="3.8666668" fill="rgb(244,182,207)" />
<circle cx="221.1662" cy="244.36072" r="3.8666668" fill="rgb(130,187,162)" />
<circle cx="167.72934" cy="262.49225" r="3.8666668" fill="rgb(16,134,99)" />
<circle cx="273.31238" cy="194.28651" r="3.8666668" fill="rgb(202,212,112)" />
<circle cx="268.80188" cy="212.6087" r="3.8666668" fill="rgb(235,233,150)" />
<circle cx="168.45848" cy="146.11139" r="3.8" fill="rgb(160,253,253)" />
<circle cx="260.72388" cy="229.70554" r="3.8" fill="rgb(138,166,30)" />
<circle cx="249.38608" cy="244.88849" r="3.8" fill="rgb(73,176,55)" />
<circle cx="235.22787" cy="257.54266" r="3.8" fill="rgb(96,186,122)" />
<circle cx="218.80325" cy="267.15164" r="3.8" fill="rgb(237,53,222)" />
<circle cx="201.71439" cy="226.58818" r="3.7333333" fill="rgb(160,174,135)" />
<circle cx="200.75914" cy="273.31857" r="3.7333333" fill="rgb(205,81,9)" />
<circle cx="181.80986" cy="275.7826" r="3.7333333" fill="rgb(56,91,15)" />
<circle cx="162.70898" cy="274.42966" r="3.7333333" fill="rgb(169,29,18)" />
<circle cx="144.21927" cy="269.2979" r="3.7333333" fill="rgb(114,72,122)" />
<circle cx="111.98832" cy="248.59961" r="3.7333333" fill="rgb(202,158,230)" />
<circle cx="99.54933" cy="233.83182" r="3.7333333" fill="rgb(213,251,203)" />
<circle cx="180.52083" cy="93.601746" r="3.6666667" fill="rgb(76,92,96)" />
<circle cx="90.27337" cy="216.85194" r="3.6666667" fill="rgb(210,225,106)" />
<circle cx="162.0567" cy="149.25261" r="3.6" fill="rgb(160,122,213)" />
<circle cx="190.39622" cy="217.58888" r="3.6" fill="rgb(82,230,40)" />
<circle cx="174.88577" cy="219.06674" r="3.6" fill="rgb(121,187,220)" />
<circle cx="212.40819" cy="134.82164" r="3.5333333" fill="rgb(226,166,255)" />
<circle cx="152.95901" cy="125.544106" r="3.5333333" fill="rgb(11,141,24)" />
<circle cx="122.34867" cy="108.304276" r="3.5333333" fill="rgb(97,226,133)" />
<circle cx="84.54422" cy="198.32944" r="3.5333333" fill="rgb(191,207,32)" />
<circle cx="82.6055" cy="178.99817" r="3.5333333" fill="rgb(173,92,10)" />
<circle cx="84.55028" cy="159.62738" r="3.5333333" fill="rgb(166,136,78)" />
<circle cx="90.31682" cy="140.99104" r="3.4666667" fill="rgb(234,203,118)" />
<circle cx="99.69032" cy="123.83696" r="3.4666667" fill="rgb(107,11,179)" />
<circle cx="112.310974" cy="108.85673" r="3.4666667" fill="rgb(232,31,244)" />
<circle cx="127.68765" cy="96.65788" r="3.4666667" fill="rgb(84,6,93)" />
<circle cx="145.2171" cy="87.73929" r="3.4666667" fill="rgb(57,155,89)" />
<circle cx="203.63574" cy="218.29309" r="3.4" fill="rgb(250,93,79)" />
<circle cx="164.20755" cy="82.47069" r="3.4" fill="rgb(99,68,58)" />
<circle cx="183.90602" cy="81.07745" r="3.4" fill="rgb(139,7,186)" />
<circle cx="203.52818" cy="83.63096" r="3.4" fill="rgb(217,234,70)" />
<circle cx="196.21626" cy="140.3909" r="3.3333333" fill="rgb(124,85,35)" />
<circle cx="126.259415" cy="130.594" r="3.3333333" fill="rgb(41,149,208)" />
<circle cx="184.3519" cy="263.08597" r="3.3333333" fill="rgb(124,90,56)" />
<circle cx="222.28958" cy="90.045135" r="3.3333333" fill="rgb(252,149,211)" />
<circle cx="239.43698" cy="100.079216" r="3.3333333" fill="rgb(208,123,55)" />
<circle cx="254.27866" cy="113.346825" r="3.3333333" fill="rgb(75,161,127)" />
<circle cx="266.21222" cy="129.33073" r="3.3333333" fill="rgb(166,181,65)" />
<circle cx="274.74918" cy="147.40312" r="3.3333333" fill="rgb(194,99,255)" />
<circle cx="279.53473" cy="166.85016" r="3.2666667" fill="rgb(94,23,27)" />
<circle cx="280.36267" cy="186.90018" r="3.2666667" fill="rgb(147,193,180)" />
<circle cx="277.18417" cy="206.75441" r="3.2666667" fill="rgb(88,93,177)" />
<circle cx="270.11023" cy="225.61868" r="3.2666667" fill="rgb(150,193,180)" />
<circle cx="259.40814" cy="242.73523" r="3.2666667" fill="rgb(211,132,70)" />
<circle cx="245.49109" cy="257.41315" r="3.2666667" fill="rgb(69,224,208)" />
<circle cx="151.81972" cy="158.90697" r="3.2" fill="rgb(215,152,88)" />
<circle cx="156.4389" cy="153.57957" r="3.2" fill="rgb(17,220,145)" />
<circle cx="229.55508" cy="108.49293" r="3.2" fill="rgb(66,141,124)" />
<circle cx="228.90256" cy="269.05627" r="3.2" fill="rgb(240,56,17)" />
<circle cx="210.29482" cy="277.18735" r="3.1333334" fill="rgb(27,126,182)" />
<circle cx="190.4035" cy="281.46765" r="3.1333334" fill="rgb(3,152,165)" />
<circle cx="163.4068" cy="108.294846" r="3.0666666" fill="rgb(93,165,123)" />
</svg>
